<svg width="16" height="18" viewBox="0 0 16 18" fill="none" xmlns="http://www.w3.org/2000/svg">
<path d="M0.193395 17.4083L1.56147 4.38038C1.59017 4.10764 1.82006 3.90055 2.0943 3.90055H4.66565V3.31429C4.66565 1.48686 6.1525 0 7.97994 0C9.80751 0 11.2944 1.48686 11.2944 3.31429V3.90055H13.8657C14.14 3.90055 14.3699 4.10764 14.3986 4.38038L15.7666 17.4083C15.7824 17.5593 15.7334 17.7099 15.6319 17.8228C15.5303 17.9356 15.3855 18 15.2338 18H0.726368C0.574482 18 0.429738 17.9356 0.328252 17.8228C0.226491 17.7099 0.177602 17.5593 0.193395 17.4083ZM10.2229 3.31429C10.2229 2.07765 9.21672 1.07144 7.97994 1.07144C6.74329 1.07144 5.73709 2.07765 5.73709 3.31429V3.90055H10.2229V3.31429ZM14.6389 16.9285L13.3833 4.97199H11.2944V6.1526C11.2944 6.44841 11.0545 6.68832 10.7587 6.68832C10.4628 6.68832 10.2229 6.44841 10.2229 6.1526V4.97199H5.73709V6.1526C5.73709 6.44841 5.49717 6.68832 5.20137 6.68832C4.90556 6.68832 4.66565 6.44841 4.66565 6.1526V4.97199H2.57674L1.32114 16.9285H14.6389Z" fill="white"/>
</svg>
