<svg width="18" height="16" viewBox="0 0 18 16" fill="none" xmlns="http://www.w3.org/2000/svg">
<path d="M1.58203 0.96875H16.418C17.2921 0.96875 18 1.76023 18 2.72656V13.2734C18 14.2455 17.2869 15.0312 16.418 15.0312H1.58203C0.715254 15.0312 0 14.2488 0 13.2734V2.72656C0 1.76195 0.70513 0.96875 1.58203 0.96875ZM1.80359 2.14062C2.12681 2.49785 7.68927 8.64582 7.88133 8.85809C8.18016 9.19012 8.57742 9.37293 9 9.37293C9.42258 9.37293 9.81984 9.19008 10.1197 8.85699C10.2488 8.71422 15.7499 2.63414 16.1964 2.14062H1.80359ZM16.9453 13.0349V2.96582L12.3877 8.00312L16.9453 13.0349ZM16.1957 13.8594L11.64 8.82957L10.8644 9.68672C10.3664 10.2401 9.70429 10.5448 9 10.5448C8.29572 10.5448 7.63358 10.2401 7.13654 9.68781L6.36005 8.82957L1.80425 13.8594H16.1957ZM1.05469 13.0349L5.61227 8.00312L1.05469 2.96582V13.0349Z" fill="white" fill-opacity="0.7"/>
</svg>
