<svg width="28" height="28" viewBox="0 0 28 28" fill="none" xmlns="http://www.w3.org/2000/svg">
<path opacity="0.4" d="M15.1392 3.63251L17.7367 8.8525C17.9281 9.23069 18.2934 9.49332 18.7146 9.55169L24.5492 10.4015C24.8899 10.4493 25.1992 10.6291 25.4081 10.9034C25.6146 11.1742 25.7033 11.5174 25.6531 11.8547C25.6123 12.1348 25.4804 12.394 25.2785 12.5924L21.0508 16.6906C20.7415 16.9766 20.6015 17.4003 20.6762 17.8147L21.7171 23.5763C21.8279 24.272 21.367 24.928 20.6762 25.0599C20.3915 25.1054 20.0997 25.0576 19.843 24.9268L14.6386 22.2153C14.2523 22.0204 13.7961 22.0204 13.4098 22.2153L8.20536 24.9268C7.56589 25.2665 6.77355 25.0354 6.41764 24.4051C6.28578 24.1541 6.2391 23.8681 6.28228 23.5892L7.32317 17.8264C7.39785 17.4132 7.25666 16.9871 6.94859 16.7012L2.72085 12.6052C2.21791 12.1197 2.20274 11.3201 2.68701 10.817C2.69751 10.8065 2.70918 10.7948 2.72085 10.7831C2.92156 10.5789 3.18528 10.4493 3.47001 10.4155L9.30459 9.56453C9.72469 9.505 10.0899 9.2447 10.2825 8.86417L12.7867 3.63251C13.0096 3.18428 13.4717 2.90531 13.9734 2.91698H14.1298C14.5651 2.96951 14.9443 3.23914 15.1392 3.63251" stroke="black"/>
<path d="M13.9908 22.0699C13.7649 22.0769 13.5447 22.1377 13.3467 22.2462L8.16767 24.9516C7.53398 25.254 6.77565 25.0193 6.42037 24.4134C6.28874 24.1658 6.24098 23.8821 6.28524 23.6042L7.31965 17.8536C7.38954 17.4356 7.24975 17.0106 6.94572 16.7164L2.71609 12.6215C2.21403 12.1299 2.20471 11.3231 2.69629 10.8199C2.70328 10.8129 2.7091 10.807 2.71609 10.8012C2.91645 10.6027 3.17505 10.4719 3.45345 10.4311L9.29293 9.57168C9.71578 9.51797 10.0827 9.25409 10.2691 8.87111L12.8073 3.5736C13.0485 3.14625 13.5109 2.8917 14.0002 2.91856C13.9908 3.26534 13.9908 21.8341 13.9908 22.0699Z" fill="#282B2D"/>
</svg>
