<svg width="26" height="24" viewBox="0 0 26 24" fill="none" xmlns="http://www.w3.org/2000/svg">
<path d="M12.9999 23.4763C12.6323 23.4763 12.2778 23.3431 12.0015 23.1011C10.9582 22.1888 9.95236 21.3315 9.06491 20.5753L9.06037 20.5713C6.4585 18.3541 4.21169 16.4393 2.6484 14.553C0.900874 12.4443 0.0869141 10.445 0.0869141 8.26083C0.0869141 6.13874 0.814572 4.18097 2.1357 2.74792C3.4726 1.29792 5.30702 0.499329 7.30162 0.499329C8.7924 0.499329 10.1577 0.970642 11.3594 1.90007C11.9659 2.36921 12.5156 2.94338 12.9999 3.61311C13.4844 2.94338 14.034 2.36921 14.6407 1.90007C15.8424 0.970642 17.2077 0.499329 18.6984 0.499329C20.6928 0.499329 22.5275 1.29792 23.8644 2.74792C25.1855 4.18097 25.9129 6.13874 25.9129 8.26083C25.9129 10.445 25.0992 12.4443 23.3517 14.5528C21.7884 16.4393 19.5418 18.3539 16.9403 20.5709C16.0512 21.3284 15.0438 22.187 13.9981 23.1015C13.7221 23.3431 13.3674 23.4763 12.9999 23.4763ZM7.30162 2.01218C5.73459 2.01218 4.29503 2.63758 3.24778 3.7733C2.18496 4.92617 1.59957 6.51981 1.59957 8.26083C1.59957 10.0978 2.2823 11.7407 3.81308 13.5877C5.29263 15.3731 7.49334 17.2485 10.0414 19.42L10.0461 19.424C10.937 20.1832 11.9468 21.0438 12.9978 21.9628C14.0551 21.0421 15.0665 20.18 15.959 19.4196C18.5069 17.2481 20.7074 15.3731 22.187 13.5877C23.7176 11.7407 24.4003 10.0978 24.4003 8.26083C24.4003 6.51981 23.8149 4.92617 22.7521 3.7733C21.705 2.63758 20.2653 2.01218 18.6984 2.01218C17.5505 2.01218 16.4965 2.37709 15.5659 3.09668C14.7366 3.73823 14.1589 4.54924 13.8202 5.1167C13.646 5.40852 13.3394 5.5827 12.9999 5.5827C12.6604 5.5827 12.3538 5.40852 12.1797 5.1167C11.8412 4.54924 11.2634 3.73823 10.4339 3.09668C9.50331 2.37709 8.44936 2.01218 7.30162 2.01218Z" fill="#282B2D"/>
</svg>
