<svg width="22" height="22" viewBox="0 0 22 22" fill="none" xmlns="http://www.w3.org/2000/svg">
<g clip-path="url(#clip0_828_14851)">
<path d="M17.3952 4.0708C17.1007 4.0708 16.8611 4.31044 16.8611 4.6049C16.8611 4.89937 17.1007 5.139 17.3952 5.139C17.6897 5.139 17.9293 4.89941 17.9293 4.6049C17.9293 4.31039 17.6897 4.0708 17.3952 4.0708Z" fill="white" fill-opacity="0.7"/>
<path d="M11.0001 6.26514C8.38925 6.26514 6.26514 8.38925 6.26514 11.0001C6.26514 13.611 8.38925 15.7351 11.0001 15.7351C13.611 15.7351 15.7351 13.611 15.7351 11.0002C15.7351 8.3893 13.611 6.26514 11.0001 6.26514Z" fill="white" fill-opacity="0.7"/>
<path d="M15.969 0H6.03096C2.70548 0 0 2.70548 0 6.03101V15.969C0 19.2946 2.70548 22 6.03096 22H15.969C19.2946 22 22 19.2945 22 15.969V6.03101C22 2.70548 19.2946 0 15.969 0ZM11 17.0342C7.67272 17.0342 4.96586 14.3273 4.96586 11C4.96586 7.67272 7.67276 4.9659 11 4.9659C14.3272 4.9659 17.0342 7.67276 17.0342 11C17.0342 14.3272 14.3272 17.0342 11 17.0342ZM17.3951 6.43827C16.3842 6.43827 15.5618 5.61584 15.5618 4.60496C15.5618 3.59408 16.3842 2.77161 17.3951 2.77161C18.406 2.77161 19.2284 3.59404 19.2284 4.60492C19.2284 5.6158 18.406 6.43827 17.3951 6.43827Z" fill="white" fill-opacity="0.7"/>
</g>
<defs>
<clipPath id="clip0_828_14851">
<rect width="22" height="22" fill="white"/>
</clipPath>
</defs>
</svg>
