<svg width="16" height="20" viewBox="0 0 16 20" fill="none" xmlns="http://www.w3.org/2000/svg">
<path d="M8.48754 19.7391C8.37887 19.9021 8.1959 20 8 20C7.8041 20 7.62113 19.9021 7.51246 19.7391C6.12578 17.6591 4.08332 15.0903 2.66004 12.4778C1.52199 10.3889 0.96875 8.60727 0.96875 7.03125C0.96875 3.15422 4.12297 0 8 0C11.877 0 15.0312 3.15422 15.0312 7.03125C15.0312 8.60727 14.478 10.3889 13.34 12.4778C11.9177 15.0883 9.87137 17.6634 8.48754 19.7391ZM8 1.17188C4.76914 1.17188 2.14062 3.80039 2.14062 7.03125C2.14062 8.40641 2.64715 10.0046 3.6891 11.9171C4.91594 14.1691 6.66664 16.4534 8 18.3738C9.33316 16.4537 11.084 14.1692 12.3109 11.9171C13.3529 10.0046 13.8594 8.40641 13.8594 7.03125C13.8594 3.80039 11.2309 1.17188 8 1.17188Z" fill="white" fill-opacity="0.7"/>
<path d="M8 10.5469C6.06148 10.5469 4.48438 8.96977 4.48438 7.03125C4.48438 5.09273 6.06148 3.51562 8 3.51562C9.93852 3.51562 11.5156 5.09273 11.5156 7.03125C11.5156 8.96977 9.93852 10.5469 8 10.5469ZM8 4.6875C6.70766 4.6875 5.65625 5.73891 5.65625 7.03125C5.65625 8.32359 6.70766 9.375 8 9.375C9.29234 9.375 10.3438 8.32359 10.3438 7.03125C10.3438 5.73891 9.29234 4.6875 8 4.6875Z" fill="white" fill-opacity="0.7"/>
</svg>
