<svg width="193" height="46" viewBox="0 0 193 46" fill="none" xmlns="http://www.w3.org/2000/svg">
<path d="M6.44 31V22.768H14.924V18.876H6.44V14.228H16.1V10.308H2.296V31H6.44ZM34.9871 31L29.9751 22.936C32.7751 21.928 34.1751 19.548 34.1751 16.86C34.1751 15.012 33.5591 13.472 32.3551 12.212C31.1511 10.952 29.3871 10.308 27.0911 10.308H19.1671V31H23.3111V23.468H25.7751L30.1431 31H34.9871ZM27.0631 14.144C28.8551 14.144 29.9191 15.348 29.9191 16.916C29.9191 18.512 28.8551 19.744 26.6991 19.744H23.3111V14.144H27.0631ZM55.0296 31L47.2456 10.308H43.8576L35.9616 31H40.3016L41.8976 26.52H49.1216L50.6616 31H55.0296ZM47.9456 22.824H43.0736L45.5376 15.936L47.9456 22.824ZM66.3688 31.308C70.0368 31.308 73.1728 29.936 75.8048 27.192V18.68H66.3128V22.292H72.0248V25.12C70.7088 26.436 68.6087 27.332 66.4808 27.332C64.5488 27.332 62.9528 26.688 61.6928 25.4C60.4608 24.112 59.8448 22.516 59.8448 20.64C59.8448 18.708 60.4888 17.112 61.7488 15.852C63.0088 14.592 64.6048 13.948 66.5368 13.948C68.7488 13.948 70.6248 14.732 72.1648 16.272L74.8808 13.304C73.0048 11.316 69.8967 9.944 66.5368 9.944C63.4288 9.944 60.8248 10.952 58.7248 12.968C56.6248 14.984 55.5888 17.56 55.5888 20.668C55.5888 23.748 56.5968 26.296 58.6128 28.312C60.6568 30.3 63.2328 31.308 66.3688 31.308ZM95.2527 31L90.2407 22.936C93.0407 21.928 94.4407 19.548 94.4407 16.86C94.4407 15.012 93.8247 13.472 92.6207 12.212C91.4167 10.952 89.6527 10.308 87.3567 10.308H79.4327V31H83.5767V23.468H86.0407L90.4087 31H95.2527ZM87.3287 14.144C89.1207 14.144 90.1847 15.348 90.1847 16.916C90.1847 18.512 89.1207 19.744 86.9647 19.744H83.5767V14.144H87.3287ZM115.295 31L107.511 10.308H104.123L96.2273 31H100.567L102.163 26.52H109.387L110.927 31H115.295ZM108.211 22.824H103.339L105.803 15.936L108.211 22.824ZM131.375 23.104L120.455 10.308H117.823V31H121.911V18.316L132.635 31H135.463V10.308H131.375V23.104ZM149.518 31.308C153.354 31.308 156.742 29.516 158.646 26.912L155.79 24.308C154.194 26.324 152.178 27.332 149.77 27.332C147.894 27.332 146.326 26.716 145.066 25.456C143.806 24.196 143.19 22.628 143.19 20.724C143.19 18.764 143.834 17.14 145.094 15.88C146.354 14.592 147.922 13.948 149.798 13.948C152.122 13.948 154.082 14.956 155.706 16.944L158.478 14.228C156.658 11.652 153.298 9.944 149.574 9.944C146.606 9.944 144.086 10.952 141.986 12.996C139.914 15.012 138.878 17.588 138.878 20.724C138.878 23.832 139.886 26.38 141.93 28.368C143.974 30.328 146.522 31.308 149.518 31.308ZM175.492 31V27.136H165.636V22.488H174.764V18.624H165.636V14.172H175.492V10.308H161.464V31H175.492Z" fill="#282B2D"/>
<circle cx="189" cy="21" r="4" fill="#282B2D"/>
</svg>
