<svg width="20" height="22" viewBox="0 0 20 22" fill="none" xmlns="http://www.w3.org/2000/svg">
<path d="M0.458593 21.2769L2.13068 5.35379C2.16576 5.02045 2.44673 4.76734 2.78192 4.76734H5.92468V4.0508C5.92468 1.81727 7.74195 0 9.97548 0C12.2092 0 14.0265 1.81727 14.0265 4.0508V4.76734H17.1692C17.5044 4.76734 17.7854 5.02045 17.8205 5.35379L19.4925 21.2769C19.5118 21.4613 19.4519 21.6455 19.3279 21.7834C19.2037 21.9212 19.0268 22 18.8413 22H1.11001C0.924368 22 0.747458 21.9212 0.623419 21.7834C0.499044 21.6455 0.439291 21.4613 0.458593 21.2769ZM12.7169 4.0508C12.7169 2.53935 11.4871 1.30954 9.97548 1.30954C8.46403 1.30954 7.23422 2.53935 7.23422 4.0508V4.76734H12.7169V4.0508ZM18.1142 20.6904L16.5796 6.07688H14.0265V7.51985C14.0265 7.88139 13.7332 8.17462 13.3717 8.17462C13.0101 8.17462 12.7169 7.88139 12.7169 7.51985V6.07688H7.23422V7.51985C7.23422 7.88139 6.94099 8.17462 6.57945 8.17462C6.21791 8.17462 5.92468 7.88139 5.92468 7.51985V6.07688H3.37157L1.83695 20.6904H18.1142Z" fill="#282B2D"/>
</svg>
