<svg width="20" height="22" viewBox="0 0 20 22" fill="none" xmlns="http://www.w3.org/2000/svg">
<path d="M19.3365 19.2283C19.1451 19.4472 18.9455 19.6614 18.7499 19.8666C18.7302 19.8876 18.7105 19.9085 18.6909 19.9294C18.4253 20.2117 18.1717 20.4811 17.9471 20.7783C17.9429 20.7874 17.9346 20.7965 17.9304 20.8011C17.2524 21.608 16.4204 22 15.3846 22C15.2927 22 15.2047 21.9958 15.1132 21.9914L15.1017 21.9909M19.3365 19.2283L12.3936 14.8384C12.2563 14.7518 12.1149 14.6743 11.9817 14.6013C11.8153 14.5102 11.6614 14.4235 11.5241 14.3278C10.168 13.3842 8.93667 12.1533 7.75941 10.5715C7.16454 9.74637 6.76518 9.05346 6.48647 8.34687C6.8775 7.95939 7.24358 7.55367 7.59717 7.15707M19.3365 19.2283C20.2226 18.2163 20.2226 16.9308 19.3282 15.9507M19.3365 19.2283L19.3282 15.9507M15.1017 21.9909L15.1476 21.3425C15.1452 21.3423 15.1427 21.3422 15.1402 21.342M15.1017 21.9909L15.1326 21.3416L15.1372 21.3418C15.1382 21.3419 15.1392 21.3419 15.1402 21.342M15.1017 21.9909C13.5583 21.8815 12.1731 21.2433 11.1373 20.7053C8.41667 19.2603 6.03304 17.218 4.05291 14.6241L3.00082 1.15079M15.1402 21.342C15.2358 21.3465 15.3093 21.35 15.3846 21.35C16.2165 21.35 16.8634 21.0516 17.4171 20.4015M15.1402 21.342C13.741 21.2411 12.4589 20.6591 11.4395 20.1299C8.80722 18.7312 6.49561 16.7526 4.57 14.2303C2.97496 12.13 1.91395 10.1817 1.21212 8.09415L1.21163 8.09268C0.756301 6.74897 0.595231 5.68083 0.665982 4.70269C0.722117 3.97154 0.986578 3.35809 1.45054 2.84966L3.00082 1.15079M17.4171 20.4015L17.3854 20.4434L17.3557 20.5085C17.3711 20.4748 17.3866 20.4488 17.3977 20.4317C17.4092 20.414 17.4195 20.4002 17.4268 20.3909C17.4278 20.3896 17.4288 20.3884 17.4298 20.3871C17.4309 20.3857 17.432 20.3844 17.433 20.3831C17.4402 20.3743 17.4462 20.3675 17.4489 20.3644M17.4171 20.4015C17.4212 20.3966 17.4253 20.3918 17.4294 20.3869C17.4306 20.3856 17.4317 20.3842 17.4328 20.3829L17.4413 20.3727L17.4489 20.3644M17.4171 20.4015L17.4286 20.3863C17.6754 20.0599 17.9521 19.7658 18.213 19.4887C18.2342 19.4661 18.2553 19.4437 18.2763 19.4214L18.2794 19.4181C18.4719 19.2162 18.6645 19.0094 18.8472 18.8005L18.8474 18.8002C19.1989 18.3987 19.3507 17.9733 19.35 17.5787C19.3493 17.1854 19.197 16.7712 18.848 16.3888L16.3479 13.6491L16.3395 13.6399L16.3396 13.6398C16.0113 13.266 15.6713 13.1224 15.3638 13.1224C15.0546 13.1224 14.707 13.2676 14.363 13.6445L12.8737 15.2765L12.5069 15.6785L12.0467 15.3881C11.9291 15.3139 11.8051 15.2457 11.6694 15.1714C11.5037 15.0806 11.3218 14.9791 11.1527 14.8612C9.72869 13.8703 8.4488 12.5865 7.23797 10.9596L7.23209 10.9517L7.23215 10.9516C6.6169 10.0982 6.18632 9.35736 5.88181 8.58538L5.72458 8.18677L6.02895 7.88516C6.40403 7.51348 6.75812 7.12141 7.11095 6.72569M17.4489 20.3644L17.4503 20.3629C17.4509 20.3622 17.4504 20.3628 17.4489 20.3644ZM7.11095 6.72569C7.11062 6.72606 7.11029 6.72643 7.10996 6.72681L7.59717 7.15707M7.11095 6.72569C7.23895 6.58077 7.37054 6.43656 7.49799 6.29689L7.49975 6.29497C7.8586 5.90172 8.02043 5.48287 8.02043 5.092C8.02043 4.69882 7.86101 4.2813 7.50176 3.89123L7.49974 3.88904L7.49975 3.88903L6.26009 2.53056C6.1152 2.37178 5.97866 2.21776 5.84204 2.06363L5.82951 2.04949L5.82932 2.04929C5.5557 1.74035 5.27832 1.43224 5.00836 1.15815L5.00189 1.15159L4.99561 1.14484C4.66561 0.790234 4.32606 0.65 4.00715 0.65C3.69473 0.65 3.34984 0.788329 3.00082 1.15079M7.11095 6.72569C7.1113 6.72529 7.11165 6.7249 7.112 6.72451L7.59717 7.15707M7.59717 7.15707C7.72197 7.01575 7.85092 6.87443 7.97988 6.73311C8.42915 6.24078 8.67043 5.67095 8.67043 5.092C8.67043 4.51305 8.43331 3.94322 7.97988 3.45089L3.00082 1.15079M19.3282 15.9507L16.828 13.2109L19.3282 15.9507Z" stroke="white" stroke-opacity="0.7" stroke-width="1.3"/>
</svg>
