<svg width="24" height="24" viewBox="0 0 24 24" fill="none" xmlns="http://www.w3.org/2000/svg">
<path d="M6.5 8.57101V4.5C6.5 4.22363 6.27612 4 6 4C5.72388 4 5.5 4.22363 5.5 4.5V8.57101C4.63986 8.79459 4 9.57065 4 10.5C4 11.4294 4.63986 12.2054 5.5 12.429V19.5C5.5 19.7764 5.72388 20 6 20C6.27612 20 6.5 19.7764 6.5 19.5V12.429C7.36014 12.2054 8 11.4294 8 10.5C8 9.57065 7.36014 8.79459 6.5 8.57101ZM6 11.5C5.44849 11.5 5 11.0513 5 10.5C5 9.94873 5.44849 9.5 6 9.5C6.55151 9.5 7 9.94873 7 10.5C7 11.0513 6.55151 11.5 6 11.5Z" fill="black" fill-opacity="0.7"/>
<path d="M12.5 12.071V4.5C12.5 4.22363 12.2761 4 12 4C11.7239 4 11.5 4.22363 11.5 4.5V12.071C10.6399 12.2946 10 13.0706 10 14C10 14.9294 10.6399 15.7054 11.5 15.929V19.5C11.5 19.7764 11.7239 20 12 20C12.2761 20 12.5 19.7764 12.5 19.5V15.929C13.3601 15.7054 14 14.9294 14 14C14 13.0706 13.3601 12.2946 12.5 12.071ZM12 15C11.4485 15 11 14.5513 11 14C11 13.4487 11.4485 13 12 13C12.5515 13 13 13.4487 13 14C13 14.5513 12.5515 15 12 15Z" fill="black" fill-opacity="0.7"/>
<path d="M20 10.5C20 9.57065 19.3601 8.79459 18.5 8.57101V4.5C18.5 4.22363 18.2761 4 18 4C17.7239 4 17.5 4.22363 17.5 4.5V8.57101C16.6399 8.79459 16 9.57065 16 10.5C16 11.4294 16.6399 12.2054 17.5 12.429V19.5C17.5 19.7764 17.7239 20 18 20C18.2761 20 18.5 19.7764 18.5 19.5V12.429C19.3601 12.2054 20 11.4294 20 10.5ZM18 11.5C17.4485 11.5 17 11.0513 17 10.5C17 9.94873 17.4485 9.5 18 9.5C18.5515 9.5 19 9.94873 19 10.5C19 11.0513 18.5515 11.5 18 11.5Z" fill="black" fill-opacity="0.7"/>
</svg>
