<svg width="22" height="20" viewBox="0 0 22 20" fill="none" xmlns="http://www.w3.org/2000/svg">
<path fill-rule="evenodd" clip-rule="evenodd" d="M12.2883 0.873214L14.4203 5.13242C14.6292 5.55056 15.0325 5.84049 15.5002 5.90759L20.2696 6.59409C21.4479 6.76422 21.9168 8.19234 21.064 9.01064L17.6152 12.3246C17.2763 12.6504 17.122 13.1189 17.2022 13.579L18.0161 18.2575C18.2165 19.4148 16.9847 20.2978 15.9315 19.7503L11.6687 17.5398C11.2509 17.323 10.7504 17.323 10.3313 17.5398L6.0685 19.7503C5.01527 20.2978 3.78346 19.4148 3.98512 18.2575L4.79782 13.579C4.878 13.1189 4.72372 12.6504 4.38479 12.3246L0.93596 9.01064C0.0831678 8.19234 0.552082 6.76422 1.73044 6.59409L6.49976 5.90759C6.96746 5.84049 7.37199 5.55056 7.58094 5.13242L9.7117 0.873214C10.2389 -0.179906 11.7611 -0.179906 12.2883 0.873214Z" fill="#282B2D"/>
</svg>
