<svg width="148" height="23" viewBox="0 0 148 23" fill="none" xmlns="http://www.w3.org/2000/svg">
<path d="M97.8936 4.12257C93.6935 4.12257 90.7461 7.43843 90.7461 11.6631C90.7461 15.8877 93.718 19.2281 97.9673 19.2281C102.167 19.2281 105.115 15.9123 105.115 11.6876C105.09 7.46298 102.118 4.12257 97.8936 4.12257ZM97.8936 22.6422C91.3847 22.6422 86.8407 17.8035 86.8407 11.6876C86.8407 5.59628 91.4338 0.708466 97.9673 0.708466C104.476 0.708466 109.045 5.54716 109.045 11.6631C109.02 17.7544 104.402 22.6422 97.8936 22.6422ZM28.9483 4.12257C24.7482 4.12257 21.8253 7.43843 21.8253 11.6631C21.8253 15.8877 24.7973 19.2281 28.9974 19.2281C33.1975 19.2281 36.1449 15.9123 36.1449 11.6876C36.1449 7.46298 33.1729 4.12257 28.9483 4.12257ZM28.9483 22.6422C22.4394 22.6422 17.8709 17.8035 17.8709 11.6876C17.8709 5.59628 22.464 0.708466 28.9974 0.708466C35.5063 0.708466 40.0748 5.54716 40.0748 11.6631C40.0748 17.7544 35.4818 22.6422 28.9483 22.6422ZM50.8821 22.2738L45.1346 7.07V22.2738H41.4503V1.07689H46.7557L51.9382 14.7088L57.0962 1.07689H62.3771V22.2738H58.6436V7.04543L52.8716 22.2738H50.8821ZM136.726 4.46643H132.55V18.8843H136.726C141.221 18.8843 144.095 15.9614 144.095 11.7122C144.095 7.51211 141.319 4.46643 136.726 4.46643ZM136.726 22.2738H128.817V1.05233H136.775C143.603 1.05233 148 5.49804 148 11.6385C148 17.6316 143.677 22.2738 136.726 22.2738ZM119.041 4.46643H114.104V10.7052H119.066C121.94 10.7052 123.561 9.47707 123.561 7.48755C123.585 5.15417 121.817 4.46643 119.041 4.46643ZM124.027 22.2738L118.771 14.0701H114.104V22.2493H110.396V1.02777H119.778C124.715 1.02777 127.392 3.36115 127.392 7.31562C127.392 10.9262 125.354 12.7684 122.75 13.3824L128.399 22.2247L124.027 22.2738ZM86.4968 4.46643H74.437V10.7052H85.5635V14.0947H74.437V22.2738H70.7035V1.05233H86.4968V4.46643ZM11.6076 22.2738H7.84962V4.46643H0.628418V1.05233H18.7551V4.46643H11.6076V22.2738Z" fill="black" fill-opacity="0.6"/>
</svg>
