<svg width="22" height="22" viewBox="0 0 22 22" fill="none" xmlns="http://www.w3.org/2000/svg">
<rect width="22" height="22" rx="3" fill="white" fill-opacity="0.7"/>
<path d="M17.792 6.88C17.305 7.09584 16.7817 7.24167 16.2316 7.30759C16.7992 6.96796 17.2238 6.43344 17.4263 5.80375C16.893 6.1205 16.3094 6.34345 15.7008 6.46292C15.2915 6.02592 14.7494 5.73628 14.1586 5.63895C13.5679 5.54162 12.9615 5.64205 12.4337 5.92465C11.9058 6.20725 11.4861 6.65621 11.2395 7.20183C10.993 7.74745 10.9335 8.35919 11.0703 8.94209C9.98978 8.88783 8.93274 8.60699 7.96779 8.11778C7.00284 7.62857 6.15153 6.94193 5.46912 6.10242C5.23579 6.50492 5.10163 6.97159 5.10163 7.46859C5.10136 7.916 5.21154 8.35656 5.42239 8.75118C5.63323 9.1458 5.93822 9.48227 6.31029 9.73075C5.87879 9.71702 5.4568 9.60043 5.07946 9.39067V9.42567C5.07941 10.0532 5.29648 10.6614 5.69382 11.1471C6.09115 11.6328 6.64429 11.966 7.25938 12.0903C6.85908 12.1987 6.43941 12.2146 6.03204 12.137C6.20558 12.6769 6.54362 13.1491 6.99884 13.4874C7.45406 13.8257 8.00366 14.0131 8.57071 14.0235C7.60811 14.7792 6.41931 15.1891 5.19554 15.1873C4.97876 15.1873 4.76217 15.1747 4.54688 15.1493C5.78907 15.948 7.23507 16.3719 8.71188 16.3703C13.711 16.3703 16.444 12.2298 16.444 8.63875C16.444 8.52209 16.441 8.40425 16.4358 8.28759C16.9674 7.90315 17.4262 7.42711 17.7909 6.88175L17.792 6.88Z" fill="#282B2D"/>
</svg>
