<svg xmlns="http://www.w3.org/2000/svg" height="800" width="1200" viewBox="-42.261555 -11.4094 366.26681 68.4564"><path d="M12.6784 23.3886L5.3908 1.4497l-2.6954-.4113L0 .6271 8.5.6135 17 .5998l-2.25.4334-2.25.4333v.9852l4.6185 14.1879 4.6185 14.1878.5249.8865.5248.8865 3.6988-12.8865 3.6988-12.8865.6585-2.6765.6584-2.6766-1.7506-.4574L28 .5594l5.5.0339L39 .627l-2.6969.4115-2.6968.4114-1.481 5.1887-1.4809 5.1887-2.6585 10-2.6586 10-2.011 6.75-2.0111 6.75h-1.3393l-7.2875-21.9388zm144.2234 20.844l-1.0983-1.4052-9.7832-19-9.7832-19-.3685-.4166-.3686-.4167v38.3333h3v2h-8v-2h3V1.4665l-2.25-.4333L129 .5998l6.0812-.1362 6.0811-.1362 7.6442 14.75 7.6442 14.75.0246-14.1804.0247-14.1805-2.25-.4333L152 .5998h11l-2.231.4309-2.2311.4309-.269 22.088L158 45.6376zm83.766-3.2246l-2.3045-4.1806-8.0732-15.5-8.0732-15.5-.3585-.4166-.3584-.4167v37.3333h3v2h-9.118l.618-1 .618-1h2.841l-.1961-20.4588-.1962-20.4588-2.0333-.405L215 .5998l6.009-.1362 6.009-.1362 7.2772 14.5 7.2772 14.5h.5496l.0614-13.9471.0614-13.9472-2.1224-.4166L238 .5998h11l-2.25.4334-2.25.4333-.2338 15.1805-.2337 15.1804-.0646 6.215-.0646 6.2151-.4656.4656-.4655.4655-2.3044-4.1806zm17.8047 2.6104L256 41.9093l-1.274-1.2436-1.2741-1.2435-2.4662-5.2974-2.4662-5.2974-.0097-5.2124-.0098-5.2125 2.0232-5.2875 2.0232-5.2876 1.7268-2.0307L256 3.7659l2.4725-1.7192L260.945.3274h9.8978l4.106 4.2852 4.106 4.2852 1.2225 4.0809 1.2227 4.0808v13.2897l-2.1625 4.6006-2.1625 4.6005-3.9875 2.8886-3.9876 2.8885h-8.2549zm12.2078-2.041l1.4903-1.75 1.4147-3.5 1.4147-3.5v-20l-1.8578-4.8156-1.8578-4.8156-1.4441.5542-1.4442.5541.5665-.9165.5664-.9166-2.0882-.6627-2.0882-.6628-2.704 1.12-2.704 1.12-1.1481 1.8384-1.1481 1.8384-1.1532 4.2824-1.153 4.2824v15.3998l1.1567 4.4 1.1567 4.4001 2.1722 1.7278L262 43.283l3.595.0222 3.595.0222 1.4903-1.75zM27.5 43.8027v-.5248l2.3594-.897 2.3593-.897.6322-2.8282.6322-2.8283 3.5043-11.5 3.5044-11.5 1.6257-6.25 1.6256-6.25h2.4126l5.9221 20.0763L58 40.48l.5964.9843.5965.9843 4.2017.058 4.2016.058.4131-.4131.4131-.4131.1232-19.9555.1232-19.9555-2.8344-.6316L63 .564l9 .0315 9 .0315-2.75.4166-2.75.4166v40.8672h10.708l2.5775-2.3887 2.5775-2.3888 1.1152-4.1414 1.1151-4.1414.9534.5892.9533.5892v13.882h-47v-2h3.8689l-2.0263-6-2.0262-6H37.4372l-.3719 1.25-.3719 1.25-1.4596 4.75-1.4596 4.75H37.5v2h-10zm20-16.105v-.6297l-2.2086-8.059-2.2087-8.0592-1.765 5.9388-1.7649 5.9388-.6058 2.75-.606 2.75H47.5zm49.484 15.6555l.634-1.0258h3.9234l-.2707-20.2056L101 1.9162l-2.5-.6947L96 .5268l15.25-.0997L126.5.3274v11h-1.75l-.5847-2.9235-.5847-2.9235-2.2289-2.0765-2.2288-2.0765H107.5v19h4.69l1.5771-1.75 1.577-1.75.6864-2.75.6863-2.75H118.5v20h-1.75l-.5759-2.8794-.5759-2.8795-1.6205-1.6205-1.6206-1.6206H107.5v20l5.75-.0318 5.75-.0318 1.9198-1.4525 1.9197-1.4526 1.8237-2.7656 1.8236-2.7657.007-2.45.007-2.45 1.0516 1.0516 1.0516 1.0516-.3016 6.3984L128 43.8274l-15.825.2758-15.8249.2758zm76.516-.0258v-1h4v-41h-2.7303l-2.689 2.1152-2.689 2.1153-1.5519 3.8783-1.5518 3.8783-.712-.44-.712-.4402.2634-4.3034.2634-4.3035.0546-1.75.0546-1.75h30.7386l.1342 5.9388.1343 5.9388-.9222.57-.9222.5699-.666-3.0327-.6661-3.0327-2.5042-2.976-2.5042-2.976H183.5v41h4v2h-14zm25 0v-1h4V1.4665l-2.25-.4333L198 .5998l8 .0137 8 .0136-2.75.4166-2.75.4166v40.8671h4v2h-14z" fill="#d0d0d0"/><path d="M20.0212 44.2206l-.5258-1.3932-6.8252-20.4732L5.8451 1.881l-2.4226-.677L1 .5267 8.5.543l7.5.0163-1.75.4574-1.75.4573-.0227.6767-.0227.6766 4.7507 14.75 4.7506 14.75h1.179l4.2719-15.1357 4.272-15.1358-1.3394-.8489L29 .358l4.5.121 4.5.1208-2.2275.4304-2.2275.4304-1.976 6.6834-1.9762 6.6834-4.1586 15-4.1585 15-.3643.3932-.3642.3931zm238.4005-1.167l-3.3741-2.2738-2.216-3.2882-2.216-3.2883-1.217-5.438-1.2169-5.4379 1.1849-5.25 1.1848-5.25 2.2395-3.9704 2.2396-3.9704 3.3826-2.2796 3.3827-2.2796h7.4084l3.3386 2.25 3.3386 2.25 2.5368 4.9295 2.5367 4.9295.3884 6.873.3883 6.873-1.6325 4.2748-1.6326 4.2748-3.2106 3.284-3.2106 3.2838-2.3378.8888-2.3377.8888h-5.574zm12.7713-1.9211l2.193-2.0467 1.057-4.9284 1.057-4.9284V14.6904l-1.5276-5.1441-1.5277-5.1442-2.1949-1.5373-2.1948-1.5374h-5.2853l-2.4942 1.962-2.4943 1.962-1.1038 4.288-1.1038 4.288-.5961 5-.596 5 1.114 7 1.1141 7 1.5035 2.3038 1.5035 2.3038 2.1917.9044 2.1917.9043 2.5-.5322 2.5-.5323zM28.5 43.3275v-1h3.7506l3.124-11.25 3.124-11.25 2.7507-9.105L44 1.6178l.9717-.3951.9716-.3952 6.1278 20.5 6.1277 20.5 1.9006.3471 1.9006.347.95.903.95.903H49.5V42.474l1.3838-.3233 1.3838-.3234-1.6693-5.5-1.6693-5.5H37.071l-1.6693 5.5-1.6693 5.5 1.3838.3234 1.3838.3233v1.8533h-8zm19.7703-15.25l-.4436-1.25-2.3454-8.2347-2.3454-8.2346-.347.347-.3468.3468-2.361 8.5812-2.3609 8.5812.5566.5565.5565.5565h9.8807zM64.5 43.3274v-1h5V1.4602l-2.75-.4166L64 .627l8-.0136 8-.0137-2.25.4334-2.25.4333v40.8609h10.7303l2.623-2.0633 2.623-2.0633 1.4422-4.6867 1.4422-4.6867.0697 7.75.0696 7.75h-30zm34.75-.0312l2.25-.9044V1.4665l-2.25-.4333L97 .5998l14.5-.1307L126 .3383l.2074 4.9946.2075 4.9945H124.5V6.2365l-2.4545-2.4545-2.4546-2.4546H107.5v19.8604l3.25-.9265 3.25-.9266 1.25-1.6947 1.25-1.6948v-3.6178h1.8717l-.1687 9-.1687 9H116.5v-4l-2-2-2-2h-5v20h11.8465l2.979-2.5066 2.979-2.5066.9944-3.7434.9944-3.7434.1033 7.25.1034 7.25-15.25-.0633L97 44.2007l2.25-.9044zm32.5.3418l1.75-.4573V1.474l-1.75-.4573L130 .5594l5.5-.1063 5.5-.1063 7.5 14.4806 7.5 14.4807.5.0113.5.0113-.302-13.9383-.302-13.9383-1.698-.4473L153 .5594h9l-1.75.4574-1.75.4573-.0788 15.1767-.0788 15.1766.1477 6.25.1477 6.25h-1.7094l-9.3797-18.25-9.3796-18.25-1.3346-1.9725L135.5 3.8824v38.445h3v2l-4.25-.116-4.25-.116 1.75-.4573zm42.75-.3107v-1h3v-41h-3.7784l-2.104 1.75-2.104 1.75-1.967 4-1.967 4-.0397-6.25-.0399-6.25h30l-.102 6.25-.1022 6.25-1.0467-3.2645-1.0468-3.2646-2.3034-2.4854-2.3034-2.4855H183.5v41h3v2h-12zm25.75.2943l2.25-.4334V1.4665l-2.25-.4333L198 .5998h15l-2.25.4334-2.25.4333v40.8609h2.882l.618 1 .618 1-7.309-.1361L198 44.055zm17.5-.3744l1.75-1.0192V1.474l-1.75-.4883L216 .4976l5.329.165 5.329.1648 7.2108 13.7066 7.2109 13.7065.7101.7101.7102.7102V1.474l-1.75-.4573L239 .5594l4.5.0202 4.5.0202-2.25.4334-2.25.4333v43.2609l-.8998-.95-.8997-.95-9.2717-18-9.2716-18-1.2235-1.8224-1.2234-1.8224-.1247 19.5724-.1247 19.5724h2.9211l.618 1 .618 1-4.309-.0304-4.309-.0304 1.75-1.0193z" fill="#aeaeae"/><path d="M260.5206 44.2114l-2.4795-.9893-1.8786-1.6973-1.8787-1.6974-2.4884-4.9072-2.4885-4.9073-.043-6.8793-.0432-6.8793 2.908-5.686 2.9078-5.6858 3.3796-2.2775 3.3796-2.2776 3.6021.0066L269 .3406l2.814 1.8554 2.8138 1.8553 2.3323 3.4322 2.3322 3.4322 1.0983 3.9559 1.0983 3.9559.006 4.384.006 4.384-1.1414 3.8097-1.1415 3.8097-3.0338 3.6805-3.0337 3.6805-3.2927 1.3758-3.2935 1.3757-1.782-.0633L263 45.2007zm8.5073-1.0786l2.622-1.1947 1.629-3.0553 1.629-3.0554.3986-10.5125.3985-10.5125-1.172-4.3524-1.172-4.3525-2.385-2.385-2.385-2.385h-6.9132l-2.5491 3.0294-2.5491 3.0294-.7862 3.7206-.7862 3.7205.0003 9 .0003 9 1.7755 4.6103 1.7754 4.6103 2.2207 1.072L263 44.192l1.703.0678 1.7029.0676zM13 22.8755L6 1.4356l-2.5-.4042L1 .627 8.5.6135 16 .5998l-2.128.4174-2.128.4174 5.128 15.917L22 33.2686l.5.0194.5.0195 4.5971-15.9461 4.5971-15.9462-1.597-.4279L29 .5595l4-.0458 4-.0457-1.887.7409-1.8871.7409-2.7748 9.4388-2.7748 9.4388-3.2129 11.75-3.2128 11.75-.6253-.006-.6253-.006zm17.2082 20.4362l2.2082-.8889 1.6145-5.7977 1.6145-5.7977.8483-2.5.8484-2.5.079 1.75.0789 1.75h11l-.0776-1.25-.0775-1.25-2.7642-8.5-2.7642-8.5-2.3152 7.7597-2.3152 7.7598-.4284-.4284-.4284-.4284 2.6424-8.8313 2.6424-8.8314 1.0509-3.342 1.0509-3.342.7653.842.7653.842 3.182 11 3.1818 11 2.9672 9.6834 2.9673 9.6834 2.2276.4304L63 44.0551l-7 .0202-7 .0201 1.75-.4573 1.75-.4573v-.8836l-1.664-5.9849-1.6639-5.9849H36.8279l-1.664 5.985L33.5 42.2971v.8836l1.75.4573 1.75.4573-4.5.0526-4.5.0527zm36.2918.1216l2.5-.6947.27-20.6334.2701-20.6334-2.27-.436L65 .5998h15l-2.25.4334-2.25.4333v42.1086l5.5221-.458 5.5222-.4579 2.9066-2.7847 2.9066-2.7848.968-3.6311.9678-3.6312.1033 7.25.1034 7.25-15.25-.0996L64 44.128zm33.25.2048l1.75-.4573V1.474l-1.75-.4573L98 .5594h12l-1.5.4092-1.5.409.2228 20.725.2227 20.7248 6.0648-.0989 6.0648-.0989 2.989-2.8635 2.9888-2.8635.8834-3.0376.8833-3.0376.0902 6.75.0902 6.75-14.75-.116-14.75-.116zm32.5985-.1958l1.3484-.8546-.1434-15.1301-.1434-15.1302H135.5v30.8534l1.75.4573 1.75.4573-4 .1007-4 .1007zm43.4015.1958l1.75-.4573V1.3274h-3.555L171.6143 2.96l-2.3307 1.6325-1.8699 4.1175-1.8698 4.1175-.022-6.25-.0219-6.25h30l-.0706 5.75-.0706 5.75-1.857-4.176-1.857-4.176-2.0066-1.074-2.0067-1.074H183.5v41.8534l1.75.4573 1.75.4573h-13zm25 0l1.75-.4573V1.474l-1.75-.4573L199 .5594h13l-1.75.4574-1.75.4573v41.7067l1.75.4573 1.75.4573h-13zm17 0l1.75-.4573V1.474l-1.75-.4883L216 .4976l5.3342.165 5.3342.1648 7.2534 14.202 7.2535 14.2018 1.2123 1.4608 1.2124 1.4608-.3 6.3373-.3 6.3373-10.3685-20-10.3685-20-.8815-.95-.8815-.95v39.3007l1.75 1.0192 1.75 1.0193-4-.0856-4-.0856 1.75-.4573zm-71.3735-20.0607l-10.2537-19.75-1.1321-1.1421-1.1321-1.1422-1.9293-.5227L130 .4976l5.5.165 5.5.1648 7 13.6142 7 13.6142 1.1547 1.3858 1.1547 1.3858.3453 6.2519L158 43.331l-.6849-.0018-.6849-.0019zm-30.5704 2.75l-1.1325-3.0002-2.2997-.8507-2.2998-.8508 2.2943-1.2278 2.2944-1.228 1.3794-3.1712 1.3795-3.1713.0391 8.25.0392 8.25h-.5615zm127.0885-10.5l.003-14 .346 7.2938.346 7.2937-.3489 6.7063-.3488 6.7062.003-14zM133.691 7.8676l.13-3.4598.6863.4242.6863.4241.0863 3.0357.0863 3.0356h-1.8053l.13-3.4598zm-9.191.5947V6.5972l-2.022-2.5706-2.022-2.5706-2.728-.4144L115 .627l5.25-.1498 5.25-.1499v10h-1zm31.2383-7.822l1.7384-.455 2.2616.4349L162 1.055l-4 .0202-4 .0201 1.7383-.455zm85 0l1.7384-.455 2.2616.4349L247 1.055l-4 .0202-4 .0201 1.7383-.455z" fill="#909090"/><path d="M264.25 44.6652l1.25-.5044 1.25.5044 1.25.5043h-5zM20.1364 43.3274l-.6382-1.5-6.9245-20.75L5.6492.3274l4.6754.0703L15 .468l-1.67.6797-1.67.6797 5.1638 15.75 5.1639 15.75h1.3657l.4183-1.25.4183-1.25-.4746 2.9785-.4747 2.9785-1.233 4.0215-1.2331 4.0215zM52.5 42.4835v-1.4803l-1.6826-5.3379-1.6826-5.3379H36.5l-.0018-.75-.0018-.75 6.1019.344 6.1019.3438-.7291-3.3439-.729-3.3439-2.3876-7.3316-2.3876-7.3316 1.0823-4.0193L44.6315.1256l.5048.5048.505.505 5.9481 19.846 5.9482 19.846.4909 1.5682.4909 1.5682H52.5zm16.7876-20.407L69 .3256l5 .1371 5 .1371-2.3045.4405-2.3045.4405.3045 21.3645L75 44.2098l-2.7124-.1912-2.7123-.1912zM84.5 43.5002v-.6845l3.1078-1.3757 3.1078-1.3756 1.9015-4.1185 1.9015-4.1185-.2593 6-.2593 6-4.75.1787-4.75.1786zm16.7864-21.319L101 .3256l3 .0013 3 .0013v43.4992l-2.7136.1047-2.7135.1046-.2865-21.8555zM117.5 43.3828v-.6169l3.012-1.1369 3.012-1.137 1.9973-4.3322 1.9973-4.3324-.2593 6-.2593 6-4.75.0862-4.75.0861v-.6169zm60-21.0554v-22h18l-.0391 5.75-.0391 5.75-1.5052-3.4702-1.5052-3.4703-1.6106-1.7797-1.6108-1.7798h-5.69v43h-6zm25.9753 21.3196l-.0247-.8196-.0107-20.685-.0107-20.6851-2.2146-.4288L199 .5998l5.5-.0572 5.5-.0573-1.2851.5161-1.285.5161.1176 21.155.1176 21.155-2.0826.3195-2.0825.3196-.0247-.8196zm66.2747-.3997l1.75-1.0193 1.5043-2.909 1.5043-2.909 1.0344-7.4367 1.0344-7.4367-.9826-6.1015-.9827-6.1014-1.3072-2.7531-1.3072-2.7532-3.4989-1.8406L265 .1462l3 .6259 3 .6258 3.693 3.865 3.6931 3.865 1.6788 5.7748 1.6788 5.7748-.5364 5.1974-.5365 5.1973-2.0415 4.0018-2.0416 4.0019-3.1206 2.6257-3.1206 2.6258-1.1732-.0304L268 44.2666zM146.6542 23.66L136.3084 3.8274l-2.015-1.75-2.015-1.75h8.0464l8.614 16.25 8.6139 16.25-.2764 5.3326L157 43.4926zm91.728 11.6674l-4.618-8.5-6.6509-12.6803-6.651-12.6803-1.7311-.4537L217 .5594l4.5752-.116 4.5752-.116 7.321 14.25 7.3208 14.25 1.4072 1.6376 1.4071 1.6376-.3032 5.8624L243 43.8274zm17.0906 4.971l-2.8296-3.0292-1.6874-4.4184-1.6874-4.4184.414-6.8025.414-6.8025 1.8093-3.7364 1.8093-3.7365 3.0823-3.0135 3.0824-3.0136h1.9974l-2.0951 1.952-2.0952 1.9519-1.3434 3.798L255 12.8275l.0213 11 .0213 11 2.249 4.25 2.2491 4.25h-1.2382l-2.8296-3.029zm-35.581-11.971v-13.5l.3497 6.75.3499 6.75-.3499 6.75-.3498 6.75zM116.5 26.9v-1.4274l-2.75-2.2083-2.75-2.2082 1.332-.475 1.332-.475 1.9143-3.1393 1.9142-3.1394.004 7.25.004 7.25h-1V26.9zm-90.3752-3.5726l.6347-3.5.8752-2 .8752-2-.6347 3.5-.6347 3.5-.8752 2-.8752 2zm2.5158-9v-1.5l.8594-2 .8594-2v3l-.8594 2-.8594 2zm136.9036-8.25L165.5.3274h9.2697l-2.6572 2.0902-2.6573 2.0902-1.9334 3.6598-1.9334 3.6598-.0442-5.75zm54.208.75l-.0202-4 .455 1.7384.4551 1.7383-.4349 2.2617-.4349 2.2616-.0202-4zm-95.2522.589V5.5051l-3.0767-2.5889-3.0768-2.5889H125.5v9h-1zm-93.8594-.089v-1.5l.8594-2 .8594-2v3l-.8594 2-.8594 2zM31.231.6715l1.231-.498 1.769.461 1.769.461-3 .037-3 .037 1.231-.498zM155.75.6381l1.75-.4573 1.75.4573 1.75.4573h-7zm86 0l1.75-.4573 1.75.4573 1.75.4573h-7z" fill="#707070"/><path d="M12.9856 21.8164L5.9713.3274h5.172l5.3528 16.75 5.3529 16.75.7755.5281.7755.5282-1.0716 4.2218-1.0717 4.222-.6283-.0111L20 43.3053zM52.5 41.8484v-1.479l-1.9511-6.271-1.9511-6.271-3.0398-10.1269-3.0398-10.127 1.1065-3.174 1.1065-3.1742.5428.5428.5428.5428 6.1689 20.5083 6.1689 20.5082H52.5zm17-20.021v-21.5l2.75-.0009L75 .3255l-.2879 21.501-.2879 21.501H69.5zm18.2397 19.9334l2.7398-1.4865 1.966-3.7234 1.9661-3.7235.0442 5.25.0442 5.25-4.75-.04-4.75-.04 2.7397-1.4866zM101.5 21.8274v-21.5h5v43h-5zm19.8066 19.4766l3.3065-2.016 1.4043-3.2303 1.4043-3.2303.0391 5.25.0392 5.25-4.75-.0037L118 43.32l3.3066-2.016zm26.796-15.2929L139.205 8.8274l-2.8187-4.25-2.8186-4.25h6.9156l5.4165 10.8003 5.4166 10.8004 3.138 5.322 3.1381 5.3222-.2963 5.3113L157 43.1948zM178 21.8261V.3264l2.5.0005 2.5.0005v43l-2.5-.0008-2.5-.0007zm25.2879.0004L203 .3255h5l-.2879 21.501-.2879 21.501h-3.8484zm29.3374 2.001l-10.3746-20-1.5304-1.75-1.5303-1.75h7.31l.01.75.01.75 8.5122 16 8.5122 16-.2718 5-.2717 5-10.3747-20zm22.6782 15.7042l-3.4292-3.7957-1.3239-4.7284-1.3238-4.7283.5258-5.7983.5257-5.7983 2.0136-3.9277 2.0137-3.9276 2.7965-2.5 2.7966-2.5-1.5784 2.5304-1.5784 2.5303-1.2526 5.5976-1.2527 5.5976.4436 8.453.4437 8.453 2.0627 4.1691 2.0627 4.169h-.5164zm16.9373 1.3981l2.087-2.6533 1.2062-7.1506 1.2061-7.1506-.649-6.3351-.649-6.335-1.0377-2.739-1.0376-2.7388-2.1834-2.3857L269 1.056l2.2094 1.1492 2.2093 1.1491 2.625 3.4415 2.6249 3.4415 1.4157 4.704 1.4157 4.704v7.4307l-1.479 4.1918-1.4789 4.1918-2.0906 2.936-2.0906 2.936-2.1036 1.1257-2.1036 1.1258zM116.0162 25.3786l-.6185-1.9489-2.1152-.6713-2.1153-.6714 2.0361-1.6298 2.0361-1.6298 1.1-2 1.0998-2 .0304 6.25.0304 6.25h-.8652zm49.74-19.0512l.2438-5.5 4.404-.315 4.404-.315-3.2866 2.7654-3.2865 2.7655-1.3612 3.0496-1.3612 3.0495zm28.7438 2.4v-1.6l-3.4-3.4-3.4-3.4h7.8v10h-1zm-70-1.754v-1.354l-2.4522-2.646-2.4523-2.646H125.5v8h-1z" fill="#4f4f4f"/><path d="M20.3142 42.7966l-.5747-.9692-6.0074-18.5-6.0074-18.5-.6798-2.25-.6797-2.25 2.3174.0148L11 .357l5.848 18.2352 5.848 18.2352-.9036 3.4692-.9035 3.469zm30.8207-7.7192l-2.486-8.25-2.1344-7.5-2.1343-7.5-.9095-1.6873-.9094-1.6873L43.9035 4.64 45.2457.8274l1.1009 4 1.1009 4 5.023 16.5 5.0232 16.5.0032.75.0031.75h-3.879zm18.4484-13.25v-21.5H74.5v43h-4.9167zm18.7799 19.8833l2.3081-1.6167 1.9215-3.1333 1.9215-3.1333-.4397 3.5-.4396 3.5-.0675 1.25-.0675 1.25h-7.445zm13.9247-19.8842L102 .3255l2.25.001 2.25.001v43h-3.9242zm19.0753 19.8842l2.3081-1.6167 1.9106-3.1333 1.9106-3.1333.004 4.75.004 4.75h-8.445l2.3082-1.6167zM178.5 21.8274v-21.5h4v43h-4zm25 0v-21.5h4v43h-4zm52.8013 18.75l-2.573-2.75-1.698-3.3625-1.698-3.3625-.538-5.2125-.538-5.2124 1.669-5.7412 1.669-5.7412 3.4208-3.6838 3.4208-3.6839-2.1924 4.4923-2.1923 4.4924-.3922 9.7659-.3923 9.766 1.1918 4.7417 1.1917 4.7417 1.5799 1.75 1.5799 1.75h-.9358zm16.536-.6055l2.529-3.7266.7002-5.6041.7002-5.604-.5463-7.223-.5462-7.2228-2.059-4.2615-2.0588-4.2614 1.9759 1.7882 1.9759 1.7881 2.7018 5.5223 2.7018 5.5222v13.251l-3.037 5.3754-3.0368 5.3754-2.2648 1.5037-2.2648 1.5038zM152.896 35.0774l-3.629-7.25-6.5279-12.5-6.5278-12.5-.9781-1.25-.978-1.25 2.8724.0115L140 .3504l8.5 16.2385 8.5 16.2385.1429 4.75.1428 4.75h-.7606l-3.629-7.25zm82.8914-5.3133l-6.2126-11.9367-3.7874-7.5-3.7874-7.5-.75-.3333-.75-.3333V.1946l2.5805.3164 2.5805.3164 2.7462 5 2.7463 5 5.738 11.1035 5.7378 11.1034-.3146 4.3333L242 41.7008zm-120.7957-5.839l-2.0084-2.1911 2.088-3.0984 2.088-3.0984.0284 5.3951.0284 5.3951-.108-.1055-.1081-.1056zm51.512-19.3477L166.5.3274l3.75.0305 3.75.0304-1.818 1.0573-1.8182 1.0574-1.9282 3.1622-1.9281 3.1622-.004-4.25zM124.5 6.282V5.2365l-2.4546-2.4545L119.591.3274h5.909v7h-1zm69 0V5.2365l-2.4546-2.4545L188.591.3274h5.909v7h-1z" fill="#272727"/><path d="M51.92 36.5774l-1.8769-6.75.0982-1.75.0982-1.75-1.1198-.0153L48 26.2968l1.5-.9694 1.5-.9693-1.5377-.0153-1.5377-.0154-1.6378-6.1124-1.6377-6.1125.5954-1.5516.5954-1.5516-1.0188.6297-1.0187.6296-.0843-2.9656-.0843-2.9656h1.3851l1.2284 1.967 1.2283 1.9669-.9976 2.6241-.9977 2.6241 2.0098.5256 2.0099.5256.1523 1.6334.1523 1.6333.1944 1 .1943 1 .5751 1.5.575 1.5 2.0186 6.5 2.0185 6.5.9791 3.75.9792 3.75h-3.542zm1.702-1.925l-1.0612-1.825-.0304.6683-.0304.6682.6235 1.6249.6236 1.6249.4681-.4681.4681-.4682zm16.918-12.842L70.6362.2936l.932.576.9319.576v2.882H74v37l-1 .0152-1 .0154 1.5.9693 1.5.9694-2.278.0153-2.278.0153zm18.33 20.1153l1.3374-1.0983 1.6463-2.4725L93.5 35.8824v7.3113l-2.9836-.0849-2.9837-.0848 1.3374-1.0983zm13.7364-19.531l.031-20.9326 1.9313.1455 1.9313.1454v41.5744h-3.9244l.0309-20.9326zm19.4083 19.2984l1.8248-1.3344 1.7993-2.7429 1.7993-2.7429-.219 3.9773L127 42.8274l-3.4051.1-3.4051.1zm56.5273-18.08l-.1062-19.2857 1.282-.079L181 4.1696l-1.25-.5043-1.25-.5044V1.5044l1.75.2562 1.75.2562.2696 20.441.2697 20.441h-3.8911l-.1062-19.2857zm25.0326-1.5l.1719-20.7857.6267.0153.6268.0154 1.4916.943 1.4917.943-1.2417 1.2417L205.5 5.7274l.0153 1.05.0153 1.05.9694-1.5.9694-1.5.0153 19.0358.0153 19.0357h-4.0973l.1718-20.7857zM19.1042 37.9612l-1.6676-4.3665-.5694-2.3836-.5695-2.3836-.5123-2.75-.5124-2.75h-1.7235l.9753-2.565.9752-2.5652v-1.252l-1.5518 1.9411-1.5518 1.9411.6192-2.25.6192-2.25h-2.1729l.6-2.75.5999-2.75-.8576 1.1977-.8576 1.1977-1.5994-4.4477L7.748 4.3274l1.126-.0304L10 4.2666 8.25 3.2473 6.5 2.2281V.3703l2.4592 1.1205 2.4592 1.1205-1.1229 2.108-1.123 2.1081 1.8372-1.5 1.8371-1.5-.5801 2.2514-.5802 2.2514 1.0767-.6654 1.0767-.6654-.6386 1.664-.6385 1.664H14.5v2.6806l2.988 8.9098 2.9879 8.9097.012.309.0121.309-1.1355-.7017-1.1354-.7017 2.2532 3.0476 2.2532 3.0477-.8428 1.345-.8428 1.3451.288 1.75.2878 1.75h-.854zm222.2774 2.1163l-.1184-1.25.1184-.75.1184-.75h-2.2331l.4766-2.4936.4767-2.4937-1.61-1.2563L237 29.8274l1.3724 1.75 1.3725 1.75h-1.9239l-1.168-2.5637-1.1682-2.5637.9962.6157.996.6156-.612-1.595-.612-1.5951-.5368.5367-.5368.5368-1.4726-2.1024-1.4727-2.1025 1.383-.8759L235 21.3581l-1.7852-.0153-1.7852-.0154 1.199-2.25 1.1988-2.25-1.4549 1.1992-1.455 1.1992-1.3694-2.1992-1.3694-2.1992 1.4578 1 1.4578 1-1.6846-1.569-1.6845-1.5692-2.1051-4.1264-2.1052-4.1265.9925-.6135.9926-.6134-.0153-1.191-.0153-1.191-.894 1.4122-.8939 1.4122-1.5907-1.5908L220.5 1.4703V.6738l2.75.4175 2.75.4175 3.9777 8.1593 3.9777 8.1593-.2277.75-.2277.75h1.7721l1.8213 3.75 1.8212 3.75-.2742 1.3504-.2742 1.3503.9621-.5946.9621-.5946.7207 1.7443.7206 1.7442.4197 4.75.4196 4.75H241.5zM228.1042 8.5983L227.5 7.994l.0789 1.9167.0789 1.9166.5252-1.3125.5252-1.3125-.6041-.6041zm27.2682 30.9791L254 37.8274l1.75 1.3725 1.75 1.3724v.7551h-.7551zm19.342-2.25l2.2856-4.5.75-.3333.75-.3333v-1.9514l-1.1575.7154-1.1575.7154.532-2.0344.532-2.0344-.8402-9.1053-.8402-9.1054-1.56-3.0166-1.56-3.0167h.8539l2.0664 3.5024 2.0665 3.5024-.545 1.4203-.545 1.4203 1.996 1.996 1.9961 1.9962.0298 6.2364.0298 6.2364-1.3889 3.324-1.3889 3.3242-2.5953 2.7707-2.5952 2.7707zm3.3898-18.7291l-.6042-.6042.079 1.9167.0789 1.9166.5252-1.3125.5252-1.3125-.6041-.6041zM154.75 37.6143l-1.25-2.6856v-2.4346l-.809-.3333-.8089-.3334-3.2575-5.7379-3.2576-5.738.7268-1.262.7269-1.262-.8393.7622-.8393.7623-3.3378-6.2473-3.3379-6.2473.5053-1.317.5054-1.3168-.8838.5462-.8837.5462-.6048-1.576-.6048-1.5761v-.8365h3.9486l1.5514 3 1.5514 3H142.19l1.753 1.937 1.753 1.937-.7525 1.2175-.7525 1.2176 1.0825-.669 1.0825-.6691.718 2.2645.7182 2.2645 2.39 3.7872 2.3899 3.7872-.6906 1.1173-.6905 1.1174 1.3244-.8186 1.3245-.8186-.6585 1.716-.6585 1.716.9886-.611.9885-.6109.125 1.059.125 1.059.2114.75.2113.75.7341 1.6548.7341 1.6548-.3204 3.0815L156 40.3zm-8.9523-21.6202l.5116-1.3333h-2.6186l.5116 1.3333.5117 1.3333h.572zm-6.1102-13.3498l-1.3125-.5252-.6042.6042-.6041.6041 1.9166-.079L141 3.1696l-1.3125-.5252zm113.548 34.0854l-.5977-.5978.601-1.5663.601-1.5663-1.0708.662-1.071.6618-.9485-5.5053-.9484-5.5053.8275-5.2352.8276-5.2353 1.0281-.3427 1.0282-.3427-.5226-.8455-.5225-.8455 1.0163-.628 1.0163-.6282v5.118l-1.25.0153-1.25.0154 1 .7346 1 .7347.1182 9 .1182 9 .7388 1.75.7388 1.75h-1.8807l-.5977-.5977zM115.1314 23.634l-1.8688-2.4976 1.7607-1.6545 1.7607-1.6545-.6383 1.8225-.6384 1.8224 1.0774 2.0132 1.0774 2.0132-.331.3164-.331.3165zM278.1 13.7274l-.647-1.6862.5-.5.5-.5.647 1.6862.647 1.6863-.5.5-.5.5zm-23.6-5.849v-.6938l1.5-1.5 1.5-1.5v1.898L256 7.3274l-1.5 1.245zM166.7312 3.805l.2088-2.5226 1.28.4912 1.28.4912V.6607h3.0548l-2.7145 2.8334-2.7145 2.8333h-.6034zm24.9476-.5269L189.3577.3392l2.234.8265 2.2341.8264.3308 2.1677.3309 2.1676-.2438-.0553L194 6.2168zm-68.0896.2161l-.9812-1.8333h2.892v3.6666h-.9296z" fill="#202020"/><path d="M54.7708 42.7233l.6042-.6042 1.3125.5252L58 43.1695l-1.9167.079-1.9166.079zM71 24.9268V6.5248l.92.5653.9199.5654-.574-1.414-.574-1.414-.703-1.75-.7029-1.75H72.5l.084 1.75.0841 1.75-.1607 16.8051-.1607 16.8052 1.3266 1.6948L75 41.8274l-1.75-1.3724-1.75-1.3724v3.0982l1.75.4573 1.75.4573-2 .1167-2 .1168zm18.2868 16.8039L91 40.4672l.3354.9364.3354.9363.9146-.5652.9146-.5653v1.7847h-5.9264zm13.2132.6904v-.9064l2 .523 2 .523v.7667h-4zm104.1841-.5937l-.269-2 .083-17.25.083-17.25h-2.081l.006-2.25.006-2.25 1.5153 2.9058 1.5154 2.9057-.295 18.5943-.295 18.5942-.2689-2zm-84.0215-.75l1.5448-1.25 1.5454-2.3284 1.5454-2.3285-.1491 2.4825L127 40.1355l-.6452-.3983-.6452-.3983-.5734 1.4943-.5734 1.4942h-3.4451zm57.2326.5328l1.895-.4853-1.0716-.6623-1.0717-.6624-.3234-17.7376L179 4.325l.75.0012.75.0012v-3.118l1.0027.6197 1.0027.6197-1.0027 1.8736L180.5 6.196v1.2495l.75-.4648.75-.4647-.6772 16.1557-.6772 16.1557.9272.3334.9272.3333v2.8333l-2.25-.116-2.25-.116zm23.6048-.2828v-1h.882l.618 1 .618 1H203.5zM52.9045 40.173l-.7135-1.1545 1.069.6608 1.0692.6607.5064-1.2562.5065-1.2563.079 1.75.0789 1.75h-1.882zm-33.2547-.8455l-.1225-1.5.625-2.3345.6252-2.3345.846 1.3345.8459 1.3345.0153.809.0153.809-.9285-.5738-.9285-.5738-.4353 2.2648-.4353 2.2648zm72.393.0691l-.5754-.9309 1.0163-.628 1.0163-.6282v3.118h-.882l-.5753-.9309zm11.1405.281l-.6833-.6834.0136-15.0833.0137-15.0834.603-2.25.603-2.25h2.9096l-1.5715 1.5715L103.5 7.4703l.2227 16.1786.2227 16.1785.3039-15.9765.3038-15.9765 1.09-1.0235 1.09-1.0235-.4875 16.321-.4875 16.321-.9457.9457-.9457.9457zm100.5058-16.6l-.1891-16.75.75-.002.75-.002-.2623 11.252-.2622 11.252-.2987 5.5-.2986 5.5-.1891-16.75zm37.3905 14.903l.5567-1.4508-1.0245-.6331-1.0244-.6332.6156-1.718.6157-1.718-.8174.7414-.8173.7413-1.2825-1.0644-1.2826-1.0645.6105-1.591.6105-1.5908-1.1585.716-1.1585.716.6585-1.716.6585-1.716-1.2697.7847-1.2697.7847 1.0997-2.055L236.5 23.459v-1.202l-2 1.0704-2 1.0704v-2.0704h2v-3.445l1.4998 2.1413 1.4998 2.1412-.6697 1.7453-.6698 1.7453 1.1563-.7146 1.1563-.7146-.3576 3.0711-.3576 3.0712.8713.5384.8712.5385V27.994l.544.544.544.544.4952 2.8726.4953 2.8727.5014 1.6659.5014 1.6658-1.0292.6361-1.0292.6361zM51.8243 35.3757l-1.1141-2.9517.9704-.3234.9704-.3235-.684-2.7248-.6838-2.7249-1.6416-.0153L48 26.2968l1.1545-.7347 1.1545-.7347.3455-.645.3455-.645-1.8151-2.0057-1.8152-2.0057.9515-.588.9514-.588.7165 2.2387.7165 2.2387.3289 1 .329 1 2.0682 5.486L55.5 35.7991l-.0354.5141-.0355.5141-1.5022-2.5-1.5022-2.5.6171 3.25.6171 3.25h-.7204zM154.5 36.8005l-1.5-1.857 1.25.751 1.25.751V32.994l-.619.619-.6191.6191-1.1334-1.2024-1.1333-1.2024-1.9976-4-1.9976-4-1-.7346-1-.7347 1.25-.0153 1.25-.0154v-2.214l-1.4172.544-1.4173.5438-.5318-1.386-.5318-1.3859 1.449.556 1.4491.5561v-2.214h-2.214l.6599-1.7195.6598-1.7195-.6843.6843-.6844.6844-1.8775-1.0048-1.8775-1.0049.5899-2.71.5899-2.71-.956 1.3568-.9558 1.3568-.6884-1.1139-.6884-1.1138 1.8134-.6969L143 6.9195l-2.4259-.5736-2.4258-.5736-.4075-1.2224-.4075-1.2225 1.8334-.0996L141 3.128l-2.5-.8007-2.5-.8006 2.2243-.0997 2.2243-.0997 1.3892 2.75 1.389 2.75-.1397 2.5972-.1398 2.5972 1.39 1.2983 1.3899 1.2984-.681-2.1455-.681-2.1456h.9694l1.811 4.75 1.8111 4.75 1.4426 1.6901 1.4426 1.6902.2396 2.3098.2397 2.31.3938 1.721.3938 1.721.6642.6643.6643.6643-.3826-1.8854-.3825-1.8853-.6616-2-.6616-2 1.1778 1.844 1.1778 1.844.2466 1.156.2467 1.156.7301 1.6773.7302 1.6773-.3291 2.2377L156 38.6575zm-3.6701-11.8903l.5438-1.4172-1.3237-.508-1.3236-.508.5034 1.9253.5035 1.9251h.5527zm102.4057 11.8195l-.5978-.5978.601-1.5663.601-1.5663-.9556.5907-.9556.5906-.1499-1.6766-.1498-1.6766-.681-2.7497-.681-2.7497.6972-6.5095.697-6.5095.6695.4137.6694.4137-.0418 9.0676-.0418 9.0677.7309-1.1826.7309-1.1826-.0872 3.0663-.0872 3.0664.707 1.1441.7072 1.1441h-1.7847l-.5978-.5977zm-1.0463-15.1523l-.4573-1.75v7l.4573-1.75.4574-1.75zm24.3461 13.607l-.0354-2.643 1.5-.5756 1.5-.5756-.0354.7186-.0355.7186-1.4291 2.5-1.4291 2.5-.0354-2.643zM17.5 34.4454v-1l1-.618 1-.618v2l-1 .618-1 .618zm2-3.92v-1.1352l-1.75.6559-1.75.6558 1.4076-1.7296 1.4076-1.7296-1.1576-1.1576L16.5 24.9274v3.7334l-.557-.557-.557-.557.9668-3.3597.9668-3.3597.0902 1.5964.0902 1.5964 1.6043 3.216 1.6044 3.2159-.6044.6043-.6043.6044zm257.4456-3.0315L277 23.3338l.75-.0032.75-.0032v5h2.118l-.628 1.0164-.6282 1.0163-.8455-.5226-.8455-.5225-.3898 1.1695-.3899 1.1695.0544-4.1601zm-162.4024-4.6144l-1.2418-1.4963 1.5993-1.5993 1.5993-1.5993v2.0248l-1.1068.684-1.1067.684 1.3278.8207 1.3278.8206-.5786.5785-.5785.5786zm161.8671-5.322L276 12.2878l1.149 1.5729 1.149 1.5728.4371-.803.4371-.803-.4598 1.5-.4598 1.5-.716 3-.716 3zm2.0897 2.27v-2.5h2v5h-2zm-46.2987-.1641l.6386-1.664-1.17.723-1.1699.723-.1411-1.309-.1412-1.309.1444-2.75.1443-2.75H228.5V7.9452l1.4682 1.9411 1.4682 1.9411.0318 2.309.0318 2.309.9885-.6109.9886-.611-.6585 1.716-.6585 1.716 1.0767-.6654 1.0767-.6654-.5234 2.0014-.5234 2.0013h-1.704l.6386-1.664zm-219.1487-.5987l.6712-1.7627-.9968-1.2373-.9967-1.2373.8526-2.25.8527-2.25h1.2977l-.523 2-.523 2h1.9475l-.6798 2.25-.6798 2.25-.9468 1-.9469 1zM46.5 17.426v-.9804l1.0665-.6592 1.0666-.6591.3326.3501.3326.3501-1.3992 1.2895L46.5 18.4063zm-35.3505-6.3485l.5673-2.75H9.5704L8.5046 6.3361 7.439 4.3448l2.4696.2044 2.4697.2044.4258 1.6283.4258 1.6283-1.3238 2.9086-1.3238 2.9086zm.3304-4.2741L10.215 5.279l-.5785.5785-.5786.5786 1.471.9303L12 8.2968l.3724.0153.3725.0153zm33.3946 5.104l.6932-1.92-1.0812-.6682-1.0812-.6682 1.4507-1.204 1.4506-1.2039-.2087 3.0143-.2086 3.0142-.854.778-.854.778zM226.5 11.3275l-1.0704-2h1l1.0704 2 1.0704 2h-1zm26.5427.0691l-.5753-.9309 1.0163-.628 1.0163-.6282v3.118h-.882l-.5753-.9309zM276 10.3275l-.618-1h2.118v2h-.882zm-50.9357-3.1042l.5739-.9285 1.0854.6708 1.0854.6709-.6865-1.1109-.6866-1.1108-1.718.6435L223 6.702l1.3925-1.7114 1.3925-1.7114-.6425-.6425-.6425-.6425v2.3332h-2.118l.5712-.9243.5713-.9243-1.7623-.4597L220 1.5594l2.7243-.116 2.7243-.116 1.5514 3 1.5514 3-.2757.0766-.2757.0765-1.7548.3357-1.7547.3357.5738-.9286zm31-1.189l.6828-1.7931.5598.5598.5598.5598-1.2426 1.2333-1.2426 1.2333zM166.5 5.6007V4.4455l1.1068-.684 1.1067-.684-1.3567-.8597L166 1.358l1.191-.0153 1.191-.0154.6773 1.096.6773 1.096-1.6183 1.6183L166.5 6.756zM124 4.3274l-.618-1h2.118v2h-.882zm66.8837-2.169L189 .0364l2.5 1.281 2.5 1.281.3165.2644.3166.2644-.933.5765-.9328.5766zM7.3723 1.6637L6 0l2.5 1.2992L11 2.5983l.4167.3646.4166.3645H8.745zm162.7306-.1696l-.515-.8333h2.824l-.515.8333-.515.8333h-.764z" fill="#1e1e1e"/><path d="M70.5 41.8274v-1.5h.786l.5756 1.5.5756 1.5H70.5zm32.75.8378l1.25-.5044 1.25.5044 1.25.5043h-5zm20.7978-2.9838l2.4522-2.646V34.994l.5974.5974.5975.5975-1.813 3.0692-1.8131 3.0692h-2.4733zm-71.1332.5078l-.7236-1.1708 1.069.6608 1.0692.6607.5064-1.2562.5065-1.2563.079 1.191.0789 1.191-.9309.5753-.9309.5754zm-33.2567-1.8618v-2.5l.5044 1.25.5044 1.25-.5044 1.25-.5044 1.25zm72.3848 1.0691l-.5753-.9309.8496-.525.8497-.5252v2.912h-.5487zm87.757-4.069v-5.5l.4165 2.75.4166 2.75-.4165 2.75-.4166 2.75zm61.1289 2V35.356l.9857.9857.9857.9857-.9857.9858-.9857.9857zm-188.3497-.4167L52.5 34.994l.6042.6042.6041.6041-.5252 1.3125-.5252 1.3125zm103 0l-.0788-1.9167.6041.6042.6042.6041-.5252 1.3125-.5253 1.3125-.0789-1.9166zM21.0644 35.6206l-.6828-1.7932 1.2426 1.2334 1.2426 1.2333-.5598.5598-.5598.5598zm232.1713 1.109l-.5978-.5977.601-1.5663.601-1.5663-1.2696.7848-1.2697.7847 1.2352-2.3707 1.2352-2.3707.4117-.4637.4116-.4638-.4053 3.6777-.4052 3.6777 1.1081.4571 1.1082.4571-1.0833.079-1.0834.079zm-199.1713-2.109l-.6828-1.7932 1.2426 1.2334 1.2426 1.2333-.5598.5598-.5598.5598zM17.5 34.4455v-1l1-.618 1-.618v2l-1 .618-1 .618zm34-1.059v-.941l.9885-.611.9886-.611-.5955 1.552-.5956 1.552H51.5zm101.5643-.766l-.6828-1.793 1.2426 1.2333 1.2426 1.2333-.5598.5598-.5598.5598zm123.4357.707v-1h.882l.618 1 .618 1H276.5zm-36.6257-1.467l-.563-1.467.4289-1.283.4289-1.283.5268 2.75.5268 2.75h-.7855zm-2.7493-.3308l-.493-.7978.8897-1.4396.8898-1.4396-.1686 2.2373-.1685 2.2374h-.4564zM18.0643 29.0343l.6828-1.7931.5598.5598.5598.5598-1.2426 1.2333-1.2426 1.2333zM150 28.3274l-.618-1h2.118v2h-.882zm127.6579-1v-2.5l.5044 1.25.5044 1.25-.5044 1.25-.5044 1.25zm-41.1579-.441v-.441l1-.618 1-.618v2.118h-2zm-87.884-1.809l-.116-1.75-1.25-.0153-1.25-.0153 1.2839-.8146 1.2838-.8147-.7279-1.92-.7279-1.92 1.444 1.5039L150 20.8353l1.3914 1.769 1.3915 1.769-1.554-.5964-1.554-.5963-.4714 1.8234-.4715 1.8234zm87.4764-1.1163l.7109-1.8663-2.4017 1.1715L232 24.4378l1.9463-1.559 1.9462-1.5589 1.0037 1.0038 1.0038 1.0037-1.2592 1.25-1.2593 1.25zM16.5789 22.9108L16.5 20.994l.6042.6042.6041.6041-.5252 1.3125-.5252 1.3125zm33.1733.9081l.7522-.8292-1.5674-1.7318-1.5673-1.7319.8315-.514.8316-.5138 1.1392 2.414 1.1392 2.4139-1.1556.661L49 24.648zM115 23.3274l-.618-1h2.118v2h-.882zm30.0643-3.7068l-.6828-1.7932 1.2426 1.2334 1.2426 1.2333-.5598.5598-.5598.5598zm87.4357-.2932l1.0704-2h.7424l-.523 2-.523 2h-1.8372zm44.2778-1.7173l.1446-4.2173.7735 1.2173.7735 1.2173.0153-1.4166.0153-1.4167.455.455.4549.4549-1.3884 3.9617-1.3883 3.9617.1446-4.2173zM46.5 17.3865v-.941l.9885-.611.9886-.611-.5955 1.552-.5956 1.552H46.5zm98.7023-1.3924l-.5116-1.3333H147.5v2.6666h-1.786zm84.944-1.661l.4738-3.0057H228.5V9.0826l1.5 1.2448 1.5 1.245v4.637l-.9136.5647-.9137.5646zm21.5116.9943v-2.5l.5044 1.25.5044 1.25-.5044 1.25-.5044 1.25zm-239.0776-2l1.1906-2.5.3646-.4166.3645-.4167v1.9511l-1.5552 1.9411-1.5551 1.9411zm167.192-2v-4.5l.4334 2.25.4334 2.25-.4334 2.25-.4333 2.25zm-37.6056 2.3334l-.6667-.6667v-2.0667l1.1833 1.1834 1.1834 1.1833-.5167.5167-.5167.5166zm-97.2922-1.7534l.6932-1.92-1.0812-.6683-1.0812-.6682 1.4507-1.204 1.4506-1.2039-.2087 3.0143-.2086 3.0142-.854.778-.854.778zm181.6255-.58l-1.0704-2h1l1.0704 2 1.0704 2h-1zm26.5427.0691l-.5753-.9309 1.0163-.628 1.0163-.6282v3.118h-.882l-.5753-.9309zm-112.853-1.7621l-.5603-.9067 1.7314-1.0813 1.7315-1.0813.102 2.1312.1019 2.1311-.5192-1.3631-.5191-1.3632-.754 1.22-.7539 1.2199zm84.8646-2.3947l.5637-.9123h-2.1969l1.2895-1.395L226 3.5374l.8568.52.8567.52-1.3567.8597L225 6.2968l1 .1337 1 .1338 1-.2018 1-.2017-.779.779-.7789.7789-1.4758.2166-1.4758.2166zM8.2202 6.041l-.6464-1.685 2.4632.2039 2.4631.2039v2.8086l-1.4028-1.1642L9.6945 5.244l-.4137 1.241-.4138 1.2413zm63.918-.2137l-.5755-1.5H73.5v3h-.786zm183.926.207l.6828-1.7932.5598.5598.5598.5598-1.2426 1.2333-1.2426 1.2333zm-117.8976-.3736L137.5 4.994V3.3274h2.118l-.5652.9146-.5653.9146 1.2563.5065L141 6.1695l-1.0833.079-1.0834.079zM166.5 5.625V4.494l1.25-.5072 1.25-.5072-1.5-1.0608L166 1.358l1.191-.0153 1.191-.0154.6773 1.096.6773 1.096-1.6183 1.6183L166.5 6.756V5.625zm-62.7292-.9018l.6042-.6042 1.3125.5252L107 5.1695l-1.9167.079-1.9166.079zM124 4.3274l-.618-1h2.118v2h-.882zm16.7997-.3885L140 2.5504l-2-.4955-2-.4955 2.2148-.116 2.2148-.116 1.0704 2 1.0704 2h-.971zm37.9711.7844l.6042-.6042 1.3125.5252L182 5.1695l-1.9167.079-1.9166.079.6041-.6042zm13.3871-1.845l-.556-1.449 1.4433.5539 1.4433.5538-.5533.8952-.5532.8952h-.668zM223.5 2.8275l1.2449-1.5h.6923l-.5756 1.5-.5756 1.5h-2.0309zm-215-.4686v-.9686l1.5.5756 1.5.5756v.786h-3zm161.603-.8647l-.515-.8333h2.824l-.515.8333-.515.8333h-.764z" fill="#1a1a1a"/></svg>